# xmcd
#
# Track frame offsets:
#	150
#	14321
#	27179
#	40197
#	54615
#	67839
#	80989
#	96296
#	110428
#	123792
#	138157
#	152990
#	167247
#	180789
#	194645
#	210560
#	223505
#	236756
#	249343
#	262162
#	276191
#	290265
#	302910
#	314870
#	327413
#	340284
#
# Disc length: 4704 seconds
#
# Revision: 1
# Processed by: cddbd v1.5.2PL0 Copyright (c) Steve Scherf et al.
# Submitted via: audiograbber 1.83.01
#
DISCID=87125e1a
DTITLE=Yank Rachell - Sleepy John Estes, Cd 3 - Yank Rachell
DYEAR=2006
DGENRE=Blues
TTITLE0=Blue and Worried Woman
TTITLE1=Sugar Farm Blues
TTITLE2=Stack O'Dollars Blues
TTITLE3=Night Latch Blues
TTITLE4=Squeaky Work Bench Blues
TTITLE5=Gravel Road Woman
TTITLE6=J. L. Dairy Blues
TTITLE7=Rachel Blues
TTITLE8=Lake Michigan Blues
TTITLE9=I'm Wild and Crazy as Can Be
TTITLE10=When You Feel Down and Out
TTITLE11=Texas Tommy
TTITLE12=It's All Over
TTITLE13=My Mind Got Bad
TTITLE14=Hobo Blues
TTITLE15=It Seems Like a Dream
TTITLE16=Army Man Blues
TTITLE17=38 Pistol Blues
TTITLE18=Worried Blues
TTITLE19=Biscuit Baking Woman
TTITLE20=Insurance Man Blues
TTITLE21=Up North Blues
TTITLE22=Yellow Yam Blues
TTITLE23=Tappin' That Thing
TTITLE24=Rainy Day Blues
TTITLE25=Peach Tree Blues
EXTD=
EXTT0=
EXTT1=
EXTT2=
EXTT3=
EXTT4=
EXTT5=
EXTT6=
EXTT7=
EXTT8=
EXTT9=
EXTT10=
EXTT11=
EXTT12=
EXTT13=
EXTT14=
EXTT15=
EXTT16=
EXTT17=
EXTT18=
EXTT19=
EXTT20=
EXTT21=
EXTT22=
EXTT23=
EXTT24=
EXTT25=
PLAYORDER=
